<?xml version="1.0" standalone="no"?>
<!DOCTYPE svg PUBLIC "-//W3C//DTD SVG 1.1//EN" "http://www.w3.org/Graphics/SVG/1.1/DTD/svg11.dtd" >
<svg xmlns="http://www.w3.org/2000/svg">
<metadata>Generated by IcoMoon</metadata>
<defs>
<font id="kyc" horiz-adv-x="1024">
<font-face units-per-em="1024" ascent="877.7142857142858" descent="-146.28571428571428" />
<missing-glyph horiz-adv-x="1024" />
<glyph unicode="&#x20;" horiz-adv-x="256" d="" />
<glyph unicode="&#x67;" glyph-name="bars" d="M950 96v-74c0-10-2-18-10-24-8-8-16-12-26-12h-804c-10 0-18 4-26 12-8 6-10 14-10 24v74c0 10 2 18 10 26 8 6 16 10 26 10h804c10 0 18-4 26-10 8-8 10-16 10-26zM950 388v-72c0-10-2-20-10-26-8-8-16-12-26-12h-804c-10 0-18 4-26 12-8 6-10 16-10 26v72c0 10 2 20 10 26 8 8 16 12 26 12h804c10 0 18-4 26-12 8-6 10-16 10-26zM950 682v-74c0-10-2-18-10-26-8-6-16-10-26-10h-804c-10 0-18 4-26 10-8 8-10 16-10 26v74c0 10 2 18 10 24 8 8 16 12 26 12h804c10 0 18-4 26-12 8-6 10-14 10-24z" />
<glyph unicode="&#x6b;" glyph-name="bubble" d="M854 822h-726c-70 0-128-58-128-128v-512c0-72 86-86 128-86v-256l384 256h342c70 0 128 58 128 128v470c0 70-58 128-128 128zM896 224c0-24-20-42-42-42h-384l-256-214v214h-86c-24 0-42 18-42 42v470c0 22 18 42 42 42h726c22 0 42-20 42-42z" />
<glyph unicode="&#x6c;" glyph-name="reload" d="M590 732c-192 0-350-132-374-320l-162 32 160-236 236 158-150 30c20 120 146 252 292 252 162 0 292-138 292-300 0-160-160-292-288-292v-84c214 0 374 172 374 380s-172 380-380 380z" />
<glyph unicode="&#x6d;" glyph-name="share" d="M1024 498c0-10-4-18-10-26l-294-292c-6-8-16-10-26-10s-18 2-24 10c-8 8-12 16-12 26v146h-128c-38 0-70-2-100-4s-58-6-88-12c-30-6-54-14-76-24s-42-24-60-40c-18-16-34-36-46-58s-22-48-28-78c-6-32-10-66-10-104 0-20 2-44 4-70 0-2 0-8 0-14 2-6 2-12 2-14 0-6-2-12-4-16-4-2-8-4-14-4s-12 2-16 8c-2 4-6 8-8 14-2 4-4 10-8 16-2 8-4 12-6 14-48 108-72 194-72 258 0 76 10 140 30 190 62 154 228 230 500 230h128v146c0 10 4 20 12 26 6 8 14 12 24 12s20-4 26-12l294-292c6-8 10-16 10-26z" />
<glyph unicode="&#xe900;" glyph-name="flag" d="M256 592v176h512l-176-176 176-176h-480v-480h-32v656zM288 736v-288h400l-144 144 144 144h-400z" />
<glyph unicode="&#xe902;" glyph-name="LTC-alt" d="M427.694 32.503l57.698 274.697 291.599 199.903 34.182 163.261-291.657-200.721 82.836 394.357h-224.011l-120.319-574.315-122.671-84.43-28.483-157.562 117.275 80.402-60.317-287.941h717.582l39.867 192.349z" />
<glyph unicode="&#xe904;" glyph-name="search" d="M621.668 210.332c-44.476-31.692-98.895-50.332-157.668-50.332-150.221 0-272 121.779-272 272s121.779 272 272 272c150.221 0 272-121.779 272-272 0-58.773-18.641-113.192-50.332-157.668l178.714-178.714c17.606-17.606 17.46-45.778-0.006-63.244l-0.75-0.75c-17.421-17.421-45.781-17.469-63.244-0.006l-178.714 178.714zM464 224c114.875 0 208 93.125 208 208s-93.125 208-208 208c-114.875 0-208-93.125-208-208s93.125-208 208-208v0z" />
<glyph unicode="&#xe905;" glyph-name="BCH-alt" d="M912.474 33.974h-180.377c99.242 69.564 164.124 184.74 164.124 315.049 0 130.305-64.882 245.48-164.124 315.049h185.033c-93.613 121.576-240.626 199.928-405.933 199.928-165.32 0-312.325-78.347-405.937-199.928h185.037c-99.251-69.573-164.124-184.749-164.124-315.049 0-130.31 64.873-245.485 164.124-315.049h-180.382c93.788-118.18 238.687-193.974 401.282-193.974 162.59 0 307.489 75.794 401.277 193.974zM205.621 272.399c-43.125 168.577 58.733 340.157 227.499 383.229 168.766 43.080 340.527-58.666 383.648-227.247 43.121-168.577-58.733-340.157-227.499-383.233-168.762-43.071-340.532 58.675-383.648 227.251zM677.031 338.336c-5.851 25.135-19.745 39.778-35.082 46.179s-34.663 5.594-34.663 5.594 13.217 12.938 17.259 23.534c4.051 10.592 3.667 25.307 2.346 32.66s-7.822 37.947-35.903 49.346c-21.712 8.819-44.009 8.828-72.573 3.392l-15.626 61.102-37.717-9.627 15.441-60.375-28.722-7.335-15.446 60.38-37.712-9.622 15.45-60.38-74.193-18.937 10.005-39.11 21.802 5.562c5.955 1.52 16.691 3.555 22.469-0.32 5.774-3.87 7.249-6.306 9.744-16.073l39.873-155.874c0.947-3.704 1.412-8.458-0.992-12.265-2.409-3.798-5.395-5.309-12.978-7.245l-22.555-5.752 3.825-47.23 74.188 18.937 15.401-60.208 37.708 9.627-15.401 60.204 28.722 7.33 15.401-60.204 37.717 9.627-15.649 61.196c9.595 3.058 18.495 6.108 23.62 8.165l0.812 0.32c10.768 4.285 33.648 13.393 51.868 34.5 18.68 21.648 17.44 47.772 11.562 72.902zM481.289 367.513l-18.599 72.695s11.715 4.114 23.57 6.956c11.855 2.837 22.334 5.143 39.061 4.344 16.722-0.803 28.848-10.073 32.723-23.719 3.857-13.641 0.212-24.323-8.882-32.827-9.085-8.512-22.889-15.405-36.508-19.447-13.61-4.037-31.365-8.003-31.365-8.003zM593.162 281.678c-7.421-6.96-23.611-15.595-40.026-21.098-16.434-5.512-41.587-11.363-41.587-11.363l-20.669 80.797s23.651 7.348 42.647 10.885c18.996 3.528 35.894 2.788 43.843 1.060 7.948-1.723 22.266-6.315 26.994-24.802 4.728-18.473-3.78-28.523-11.201-35.479z" />
<glyph unicode="&#xe906;" glyph-name="BTC-alt" d="M826.241 354.414c-32.963 24.826-79.919 34.755-79.919 34.755s39.736 23.038 55.974 46.053c16.256 23.024 24.379 58.696 25.738 77.205 1.35 18.518 4.515 96.161-55.987 140.85-46.798 34.579-100.428 48.306-172.445 52.772v156.695h-96.613v-154.844h-73.588v154.844h-96.604v-154.844h-190.064v-100.329h55.865c15.231 0 42.319-1.693 53.829-14.576 11.514-12.86 13.546-19.638 13.546-44.68l0.005-399.775c0-9.478-1.806-21.209-9.939-28.89-8.119-7.681-16.242-9.473-35.663-9.473h-57.78l-19.863-116.038h190.064v-154.406h96.608v154.406h73.588v-154.406h96.613v156.952c24.975 1.458 48.261 3.35 61.844 5.13 27.544 3.603 89.839 10.828 148.089 51.463 58.231 40.639 71.312 104.298 72.672 168.399 1.373 64.106-23.038 107.906-55.969 132.736zM429.401 598.645s30.696 2.705 60.945 2.262c30.258-0.447 56.881-1.355 96.622-13.546 39.722-12.196 63.18-41.994 64.101-77.21 0.899-35.216-14.467-58.683-41.542-73.584-27.084-14.896-64.535-23.024-99.764-24.365-35.207-1.359-80.361 0-80.361 0v186.443zM645.646 136.81c-22.121-12.196-66.368-23.029-109.247-26.181-42.892-3.165-106.998-1.811-106.998-1.811v207.228s61.401 3.152 109.26 0c47.85-3.174 88.029-15.353 106.077-24.397 18.057-9.022 49.67-28.881 49.67-76.293 0-47.394-26.655-66.359-48.762-78.546z" />
<glyph unicode="&#xe907;" glyph-name="BTCD-alt" d="M95.452 718.151s127.634 145.081 383.989 145.081c256.351 0 518.161-243.261 518.161-525.801 0-282.532-224.716-497.431-467.981-497.431-243.27 0-497.986 175.633-497.986 457.072 0 281.448 247.632 398.177 389.99 394.894 147.226-3.387 292.895-122.716 309.805-257.439 14.775-117.749-51.63-207.638-81.445-235.273-29.82-27.626-113.446-65.451-187.626-45.814-74.184 19.638-109.084 77.824-115.632 108.375-6.547 30.542-10.842 101.516 48.582 135.653 59.414 34.15 99.778-8.399 108.127-29.481 8.358-21.087-3.648-52.366-26.908-57.82-23.268-5.459-43.994 2.931-56.366 13.47 0 0-1.811-50.83 47.819-59.559 49.638-8.728 80.456 19.638 94.91 41.998 14.454 22.365 41.452 95.452-22.907 163.36-64.363 67.903-176.446 62.995-239.992 16.080-63.537-46.902-127.814-133.544-100.907-260.081 26.921-126.545 142.173-244.376 313.63-245.821 171.456-1.449 363.444 135.247 379.447 361.439 15.994 226.179-138.913 386.166-250.174 432.711-111.274 46.554-207.237 65.596-327.266 42.206s-183.264-74.175-219.27-97.818z" />
<glyph unicode="&#xe908;" glyph-name="DASH-alt" d="M418.505 422.669h-372.47l-43.1-140.101h372.47zM1010.991 602.637c-20.496 39.867-62.647 54.623-94.54 54.623h-695.957l-47.078-152.577h623.669l-93.935-305.362h-628.641l-47.083-152.577h668.431c65.311 0 82.768 11.429 129.471 38.77s83.147 75.178 102.903 132.131c19.76 56.953 67.958 217.559 82.759 271.094 14.815 53.531 20.505 74.031 0 113.898z" />
<glyph unicode="&#xe909;" glyph-name="ETC" d="M212.656 405.277l302.053 127.323 292.571-130.483-293.023 461.884-301.601-458.723zM213.559 263.958l301.15-174.73 307.471 174.73-304.762-423.958-303.859 423.958zM516.063 470.293l-314.243-132.289 314.243-174.73 305.665 170.667-305.665 136.353z" />
<glyph unicode="&#xe90a;" glyph-name="GLD" d="M995.104 376.381h-323.725c-15.802 0-28.896-13.093-28.896-28.896v-101.136c0-15.802 13.093-28.896 28.896-28.896h180.6c-47.859-111.972-155.316-188.727-288.508-183.76-108.811 4.063-204.529 64.113-258.709 152.155h64.564c15.802 0 28.896 13.093 28.896 28.896v24.381c0 15.802-13.093 28.896-28.896 28.896h-100.233c-6.321 23.026-10.384 46.956-11.287 71.788-0.903 26.187 1.354 51.019 6.321 75.4h105.651c15.802 0 28.896 13.093 28.896 28.896v24.381c0 15.802-13.093 28.896-28.896 28.896h-77.206c52.825 102.942 159.831 173.376 283.541 173.376 101.136 0 191.436-47.407 249.679-121.002 9.933-12.642 29.347-13.996 40.183-1.806l78.109 83.527c6.772 7.224 7.224 18.511 0.903 26.187-89.397 107.908-224.847 176.085-376.55 173.827-209.044-3.612-387.386-143.577-448.79-334.561h-90.751c-15.802 0-28.896-13.093-28.896-28.896v-23.929c0-15.802 13.093-28.896 28.896-28.896h72.691c-2.257-17.157-3.612-34.314-4.063-51.471-0.903-32.508 1.806-64.564 7.224-95.718h-75.852c-15.802 0-28.896-13.093-28.896-28.896v-24.381c0-15.802 13.093-28.896 28.896-28.896h97.975c67.725-182.857 243.358-312.889 449.242-312.889 354.878 0 447.887 304.31 447.887 373.39v101.136c0 15.802-13.093 28.896-28.896 28.896z" />
<glyph unicode="&#xe90b;" glyph-name="OMG" d="M247.822 335.503c-136.702 0-247.519-110.921-247.519-247.749 0-136.833 110.831-247.754 247.533-247.754 136.72 0 247.537 110.921 247.537 247.754 0 136.828-110.818 247.749-247.537 247.749h-0.014zM247.822-85.059c-95.3 0-172.564 77.332-172.564 172.722s77.265 172.722 172.564 172.722c95.318 0 172.578-77.337 172.578-172.722-0.162-95.318-77.337-172.56-172.578-172.722zM776.463 864c-136.702 0-247.533-110.926-247.533-247.754s110.831-247.749 247.533-247.749c136.72 0 247.537 110.921 247.537 247.749 0 136.833-110.818 247.754-247.537 247.754zM776.463 443.443c-95.3 0-172.56 77.332-172.56 172.718 0 95.39 77.26 172.722 172.56 172.722 95.318 0 172.578-77.332 172.578-172.722-0.158-95.318-77.332-172.56-172.578-172.718zM247.822 864c-117.841 0.072-219.42-82.994-242.855-198.602-23.426-115.59 37.793-231.704 146.351-277.608 108.562-45.891 234.41-8.86 300.862 88.556 66.474 97.415 55.147 228.199-27.075 312.712h70.196v74.941h-247.479zM420.399 616.246c0-95.39-77.26-172.718-172.578-172.718-95.3 0-172.564 77.328-172.564 172.718s77.265 172.727 172.564 172.727c95.273-0.122 172.501-77.364 172.664-172.727h-0.086z" />
<glyph unicode="&#xe90c;" glyph-name="XRP-alt" d="M886.039 234.027c-34.272 18.793-71.561 27.499-108.285 27.21l0.312 0.176c-50.383-0.578-91.713 38.607-92.305 87.509-0.582 48.252 38.675 87.902 88.074 89.55v0.023l-0.090 0.045c37.37 0.181 75.178 9.686 109.622 29.563 102.997 59.446 136.859 188.687 75.629 288.673-61.243 99.99-194.377 132.858-297.374 73.412-102.997-59.441-136.854-188.687-75.62-288.673 25.503-41.664 11.406-95.511-31.509-120.283-42.305-24.415-96.78-11.442-122.766 28.822l-0.023-0.009v-0.113c-18.726 31.387-46.008 58.502-80.885 77.63-104.32 57.22-236.686 21.512-295.626-79.774-58.94-101.263-22.139-229.755 82.186-286.97 104.329-57.22 236.677-21.507 295.622 79.774 0.357 0.61 0.673 1.242 1.020 1.856v-0.149l0.023-0.009c25.038 40.883 79.269 55.048 122.129 31.54 43.475-23.846 58.796-77.377 34.241-119.569-58.949-101.286-22.144-229.769 82.177-286.979 104.325-57.224 236.686-21.507 295.626 79.774 58.931 101.272 22.144 229.751-82.177 286.97z" />
<glyph unicode="&#xe90d;" glyph-name="image" d="M959.884 768c0.040-0.034 0.082-0.076 0.116-0.116v-767.77c-0.034-0.040-0.076-0.082-0.116-0.116h-895.77c-0.040 0.034-0.082 0.076-0.114 0.116v767.772c0.034 0.040 0.076 0.082 0.114 0.114h895.77zM960 832h-896c-35.2 0-64-28.8-64-64v-768c0-35.2 28.8-64 64-64h896c35.2 0 64 28.8 64 64v768c0 35.2-28.8 64-64 64v0zM832 608c0-53.020-42.98-96-96-96s-96 42.98-96 96 42.98 96 96 96 96-42.98 96-96zM896 64h-768v128l224 384 256-320h64l224 192z" />
<glyph unicode="&#xea39;" glyph-name="arrow-up-left2" d="M877.254 109.254l-530.744 530.746h229.49c35.346 0 64 28.654 64 64s-28.654 64-64 64h-384c-25.886 0-49.222-15.592-59.128-39.508-3.282-7.924-4.84-16.242-4.838-24.492h-0.034v-384c0-35.346 28.654-64 64-64s64 28.654 64 64v229.49l530.746-530.744c12.496-12.498 28.876-18.746 45.254-18.746s32.758 6.248 45.254 18.746c24.994 24.992 24.994 65.516 0 90.508z" />
<glyph unicode="&#xf00c;" glyph-name="ok" d="M954.857 540.571q0-22.857-16-38.857l-491.429-491.429q-16-16-38.857-16t-38.857 16l-284.571 284.571q-16 16-16 38.857t16 38.857l77.714 77.714q16 16 38.857 16t38.857-16l168-168.571 374.857 375.429q16 16 38.857 16t38.857-16l77.714-77.714q16-16 16-38.857z" />
<glyph unicode="&#xf03b;" glyph-name="mail" horiz-adv-x="896" d="M0 704v-640h896v640h-896zM768 640l-320-264-320 264h640zM64 576l252.031-191.625-252.031-192.375v384zM128 128l254 206.25 66-50.25 65.875 50.125 254.125-206.125h-640zM832 192l-252.375 192.062 252.375 191.938v-384z" />
<glyph unicode="&#xf03d;" glyph-name="arrow-up" horiz-adv-x="640" d="M320 704l-320-384h192v-256h256v256h192l-320 384z" />
<glyph unicode="&#xf03f;" glyph-name="arrow-down" horiz-adv-x="640" d="M448 448v256h-256v-256h-192l320-384 320 384h-192z" />
<glyph unicode="&#xf041;" glyph-name="pin" horiz-adv-x="519" d="M196 192l64-320 64 320c-20-2-43-3-64-3s-44 1-64 3zM450 491c-33 17-62 59-62 85v64c0 22 12 39 23 52 15 13 24 29 24 45 0 53-61 95-175 95s-175-42-175-95c0-16 9-32 24-45 11-13 23-30 23-52v-64c0-26-29-68-62-85-38-19-70-54-70-88 0-74 101-148 260-148s260 73 260 148c0 33-31 68-70 88z" />
<glyph unicode="&#xf057;" glyph-name="remove_sign" d="M656.571 222.857q0 14.857-10.857 25.714l-103.429 103.429 103.429 103.429q10.857 10.857 10.857 25.714 0 15.429-10.857 26.286l-51.429 51.429q-10.857 10.857-26.286 10.857-14.857 0-25.714-10.857l-103.429-103.429-103.429 103.429q-10.857 10.857-25.714 10.857-15.429 0-26.286-10.857l-51.429-51.429q-10.857-10.857-10.857-26.286 0-14.857 10.857-25.714l103.429-103.429-103.429-103.429q-10.857-10.857-10.857-25.714 0-15.429 10.857-26.286l51.429-51.429q10.857-10.857 26.286-10.857 14.857 0 25.714 10.857l103.429 103.429 103.429-103.429q10.857-10.857 25.714-10.857 15.429 0 26.286 10.857l51.429 51.429q10.857 10.857 10.857 26.286zM877.714 352q0-119.429-58.857-220.286t-159.714-159.714-220.286-58.857-220.286 58.857-159.714 159.714-58.857 220.286 58.857 220.286 159.714 159.714 220.286 58.857 220.286-58.857 159.714-159.714 58.857-220.286z" />
<glyph unicode="&#xf058;" glyph-name="ok_sign" d="M733.714 444.571q0 16-10.286 26.286l-52 51.429q-10.857 10.857-25.714 10.857t-25.714-10.857l-233.143-232.571-129.143 129.143q-10.857 10.857-25.714 10.857t-25.714-10.857l-52-51.429q-10.286-10.286-10.286-26.286 0-15.429 10.286-25.714l206.857-206.857q10.857-10.857 25.714-10.857 15.429 0 26.286 10.857l310.286 310.286q10.286 10.286 10.286 25.714zM877.714 352q0-119.429-58.857-220.286t-159.714-159.714-220.286-58.857-220.286 58.857-159.714 159.714-58.857 220.286 58.857 220.286 159.714 159.714 220.286 58.857 220.286-58.857 159.714-159.714 58.857-220.286z" />
<glyph unicode="&#xf068;" glyph-name="minus" horiz-adv-x="805" d="M804.571 443.429v-109.714q0-22.857-16-38.857t-38.857-16h-694.857q-22.857 0-38.857 16t-16 38.857v109.714q0 22.857 16 38.857t38.857 16h694.857q22.857 0 38.857-16t16-38.857z" />
<glyph unicode="&#xf078;" glyph-name="chevron-right" horiz-adv-x="448" d="M128 704l-128-128 192-192-192-192 128-128 320 320-320 320z" />
<glyph unicode="&#xf081;" glyph-name="x" horiz-adv-x="640" d="M640 576l-128 128-192-192-192 192-128-128 192-192-192-192 128-128 192 192 192-192 128 128-192 192 192 192z" />
<glyph unicode="&#xf09f;" glyph-name="arrow-small-up" horiz-adv-x="384" d="M192 576l-192-256h128v-128h128v128h128l-192 256z" />
<glyph unicode="&#xf0a0;" glyph-name="arrow-small-down" horiz-adv-x="384" d="M256 448v128h-128v-128h-128l192-256 192 256h-128z" />
<glyph unicode="&#xf0a2;" glyph-name="chevron-up" horiz-adv-x="640" d="M320 640l-320-320 128-128 192 192 192-192 128 128-320 320z" />
<glyph unicode="&#xf0a3;" glyph-name="chevron-down" horiz-adv-x="640" d="M512 576l-192-192-192 192-128-128 320-320 320 320-128 128z" />
<glyph unicode="&#xf0a4;" glyph-name="chevron-left" horiz-adv-x="448" d="M448 576l-128 128-320-320 320-320 128 128-192 192 192 192z" />
<glyph unicode="&#xf142;" glyph-name="ellipsis_vertical" horiz-adv-x="219" d="M219.429 150.857v-109.714q0-22.857-16-38.857t-38.857-16h-109.714q-22.857 0-38.857 16t-16 38.857v109.714q0 22.857 16 38.857t38.857 16h109.714q22.857 0 38.857-16t16-38.857zM219.429 443.429v-109.714q0-22.857-16-38.857t-38.857-16h-109.714q-22.857 0-38.857 16t-16 38.857v109.714q0 22.857 16 38.857t38.857 16h109.714q22.857 0 38.857-16t16-38.857zM219.429 736v-109.714q0-22.857-16-38.857t-38.857-16h-109.714q-22.857 0-38.857 16t-16 38.857v109.714q0 22.857 16 38.857t38.857 16h109.714q22.857 0 38.857-16t16-38.857z" />
</font>
</defs>
</svg>
